<?xml version="1.0" encoding="utf-8"?><svg viewBox="0 0 800 800" xmlns="http://www.w3.org/2000/svg" xmlns:xlink="http://www.w3.org/1999/xlink"><style>:root>svg{display:none}:root>svg:target{display:block}</style><svg viewBox="0 0 32 32" id="phone-svgrepo-com" xmlns="http://www.w3.org/2000/svg"><path d="M8.194 1.156c1.169 1.612 2.563 3.694 4.175 6.237.406.688.344 1.512-.181 2.481-.2.406-.706 1.331-1.512 2.787.887 1.25 2.238 2.787 4.056 4.6s3.331 3.169 4.538 4.056c1.45-.85 2.381-1.369 2.788-1.575.525-.281 1.031-.425 1.512-.425a1.9 1.9 0 0 1 .969.244c1.856 1.131 3.956 2.525 6.294 4.175.444.325.694.769.756 1.331.063.569-.113 1.169-.512 1.819-.2.281-.525.694-.969 1.244-.444.544-1.113 1.231-2 2.056s-1.613 1.244-2.181 1.244h-.063c-4.269-.169-9.531-3.369-15.762-9.6C3.865 15.592.664 10.336.502 6.061c0-.563.412-1.3 1.244-2.212.825-.906 1.506-1.563 2.025-1.969.525-.4.969-.725 1.331-.969.444-.325.95-.481 1.513-.481.694 0 1.212.244 1.581.725zm-2 1.269A19.366 19.366 0 0 0 3.8 4.456c-.744.75-1.181 1.3-1.3 1.662.163 3.756 3.156 8.537 8.988 14.35s10.625 8.819 14.375 9.019c.325-.119.856-.563 1.606-1.331s1.425-1.575 2.025-2.419c.119-.163.163-.3.119-.425-2.419-1.694-4.438-3.044-6.056-4.056-.163 0-.363.063-.606.181-.363.2-1.269.706-2.725 1.512l-1.031.606-1.031-.669c-1.331-.925-2.944-2.363-4.844-4.3-1.894-1.894-3.306-3.512-4.238-4.844l-.725-.969.606-1.088c.806-1.45 1.313-2.363 1.512-2.725.119-.244.181-.444.181-.606a148.413 148.413 0 0 0-3.981-6.05h-.063c-.156 0-.3.044-.419.119z"/></svg><svg viewBox="0 0 24 24" fill="none" id="telegram-svgrepo-com" xmlns="http://www.w3.org/2000/svg"><path fill-rule="evenodd" clip-rule="evenodd" d="M5.788 14.02a.746.746 0 0 0 .132.031 456.056 456.056 0 0 1 .844 2.002c.503 1.202 1.01 2.44 1.121 2.796.139.438.285.736.445.94.083.104.178.196.29.266a.88.88 0 0 0 .186.088c.32.12.612.07.795.009a1.313 1.313 0 0 0 .304-.15L9.91 20l2.826-1.762 3.265 2.502c.048.037.1.068.156.093.392.17.772.23 1.13.182.356-.05.639-.199.85-.368a1.992 1.992 0 0 0 .564-.728l.009-.022.003-.008.002-.004v-.002l.001-.001a.756.756 0 0 0 .04-.133l2.98-15.025a.752.752 0 0 0 .014-.146c0-.44-.166-.859-.555-1.112-.334-.217-.705-.227-.94-.209-.252.02-.486.082-.643.132a3.458 3.458 0 0 0-.26.094l-.011.005-16.714 6.556-.002.001a2.296 2.296 0 0 0-.167.069 2.522 2.522 0 0 0-.38.212c-.227.155-.75.581-.661 1.285.07.56.454.905.689 1.071.128.091.25.156.34.199.04.02.126.054.163.07l.01.003 3.169 1.067zm14.138-9.152h-.002a.785.785 0 0 1-.026.011L3.164 11.444a.818.818 0 0 1-.026.01l-.01.003a1.126 1.126 0 0 0-.09.04.851.851 0 0 0 .086.043l3.142 1.058a.75.75 0 0 1 .16.076l10.377-6.075.01-.005a1.59 1.59 0 0 1 .124-.068c.072-.037.187-.091.317-.131.09-.028.357-.107.645-.014a.854.854 0 0 1 .588.689.84.84 0 0 1 .003.424c-.07.275-.262.489-.438.653-.15.14-2.095 2.016-4.014 3.868l-2.613 2.52-.465.45 5.872 4.502a.536.536 0 0 0 .251.04.229.229 0 0 0 .117-.052.495.495 0 0 0 .103-.12l.002-.001 2.89-14.573a1.858 1.858 0 0 0-.267.086h-.002zm-8.461 12.394-1.172-.898-.284 1.805 1.456-.907zm-2.247-2.68 1.165-1.125 2.613-2.522.973-.938-6.52 3.817.035.082a339.2 339.2 0 0 1 1.22 2.92l.283-1.8a.747.747 0 0 1 .231-.435z" fill="#000"/></svg></svg>